<svg version="1.1" viewBox="0.0 0.0 300.0 300.0" fill="none" stroke="none" stroke-linecap="square" stroke-miterlimit="10" xmlns:xlink="http://www.w3.org/1999/xlink" xmlns="http://www.w3.org/2000/svg"><clipPath id="p.0"><path d="m0 0l300.0 0l0 300.0l-300.0 0l0 -300.0z" clip-rule="nonzero"/></clipPath><g clip-path="url(#p.0)"><path fill="#000000" fill-opacity="0.0" d="m0 0l300.0 0l0 300.0l-300.0 0z" fill-rule="evenodd"/><path fill="#a4c2f4" d="m10.929133 44.801235l0 0c0 -18.707045 15.165057 -33.8721 33.8721 -33.8721l210.39752 0c8.983459 0 17.598938 3.5686579 23.951202 9.920909c6.352234 6.352251 9.920898 14.967752 9.920898 23.951193l0 210.39752c0 18.707062 -15.165039 33.8721 -33.8721 33.8721l-210.39752 0c-18.707045 0 -33.8721 -15.165039 -33.8721 -33.8721z" fill-rule="evenodd"/><path fill="#000000" fill-opacity="0.0" d="m31.755905 52.07874l182.92914 0l0 213.32285l-182.92914 0z" fill-rule="evenodd"/><path fill="#502b05" d="m80.380905 215.4756q-6.984375 0 -10.265625 -3.375q-3.28125 -3.390625 -3.28125 -11.765625q0 -5.125 1.046875 -12.984375q1.0625 -7.875 3.46875 -21.515625q4.15625 -25.0625 6.546875 -43.406242q1.421875 -11.359375 1.421875 -18.890625q0 -4.703125 -2.78125 -4.703125q-3.34375 0 -8.71875 3.90625q-5.359375 3.890625 -12.15625 12.859375q-3.0 4.03125 -6.96875 4.03125q-3.453125 0 -5.78125 -2.96875q-2.3125 -2.984375 -2.3125 -6.5625q0 -3.03125 1.171875 -6.03125q1.1875 -3.015625 3.765625 -6.625q7.984375 -11.125 17.921875 -17.28125q9.953125 -6.171875 20.109375 -6.171875q9.96875 0 15.359375 6.40625q5.390625 6.390625 5.390625 18.015625q0 4.5 -0.828125 10.4375q-0.8125 5.9375 -1.453125 9.671875q-0.640625 3.734375 -3.421875 4.703125q6.96875 -27.515625 18.921875 -38.375q11.953125 -10.859375 26.515625 -10.859375q11.59375 0 18.25 8.171875q6.65625 8.171875 6.65625 22.5q0 5.515625 -3.9375 13.109375q5.859375 -23.515625 17.171875 -33.640625q11.3125 -10.140625 26.1875 -10.140625q12.359375 0 19.015625 8.0q6.671875 8.0 6.671875 21.875q0 7.28125 -2.125 17.625l-9.75 45.749992q-1.5625 7.75 -1.5625 13.25q0 5.75 2.421875 8.359375q2.421875 2.59375 6.921875 2.59375q4.5 0 9.078125 -3.203125q4.578125 -3.203125 11.25 -11.125q2.671875 -3.125 6.2343903 -3.125q3.46875 0 5.21875 2.8125q1.765625 2.8125 1.765625 6.890625q0 7.15625 -3.625 11.515625q-8.593765 10.4375 -17.250015 15.359375q-8.65625 4.90625 -18.265625 4.90625q-14.6875 0 -23.078125 -8.828125q-8.390625 -8.828125 -8.390625 -23.421875q0 -9.71875 3.90625 -27.890625l6.40625 -29.281242q0.3125 -1.453125 1.09375 -5.09375q0.796875 -3.640625 1.25 -6.78125q0.46875 -3.140625 0.46875 -6.15625q0 -4.75 -1.53125 -6.71875q-1.53125 -1.984375 -4.296875 -1.984375q-6.359375 0 -14.078125 9.0625q-7.703125 9.046875 -15.03125 31.109367q-7.3125 22.046875 -11.921875 57.640625q-1.21875 10.328125 -4.640625 14.34375q-3.40625 4.0 -10.796875 4.0q-6.5 0 -9.703125 -3.296875q-3.203125 -3.296875 -3.203125 -11.359375q0 -6.765625 1.765625 -17.515625q1.78125 -10.765625 4.515625 -25.1875q7.328125 -38.484367 7.328125 -49.453117q0 -5.203125 -1.671875 -7.265625q-1.671875 -2.078125 -5.109375 -2.078125q-6.765625 0 -14.53125 8.296875q-7.765625 8.296875 -15.5625 30.578117q-7.796875 22.265625 -13.03125 60.5625q-1.1875 8.75 -3.890625 12.734375q-2.703125 3.984375 -10.265625 3.984375z" fill-rule="nonzero"/></g></svg>